<?xml version="1.0" encoding="utf-8"?><svg viewBox="0 0 512 512" xmlns="http://www.w3.org/2000/svg" xmlns:xlink="http://www.w3.org/1999/xlink"><style>:root>svg{display:none}:root>svg:target{display:block}</style><svg fill="none" viewBox="0 0 150 150" id="Vector" xmlns="http://www.w3.org/2000/svg"><path d="M146.341 69.079c-1.407 0-6.754 1.974-9.568 3.102-.281-1.128-1.407-1.974-2.814-1.974s-2.815.846-2.815 1.974l-5.347-.846c-.844-11.56-5.347-21.71-12.382-29.888l3.095-4.51c.845.563 2.533.563 3.377-.565 1.126-1.128 1.408-2.537.563-3.383 2.815-1.128 8.162-3.384 9.006-4.512 1.126-1.41.281-4.229-1.689-6.485-2.251-1.973-5.065-2.82-6.472-1.691-1.126.846-3.378 6.203-4.503 9.022-.845-.564-2.533-.282-3.377.564-1.126 1.128-1.407 2.538-.563 3.384l-4.503 3.101a51.597 51.597 0 00-29.831-12.406l-.844-5.357c1.125-.282 1.97-1.41 1.97-2.82s-.845-2.537-1.97-2.82c1.125-2.819 3.095-8.176 3.095-9.586C80.488 1.41 77.955 0 74.86 0c-3.095 0-5.628 1.41-5.91 3.383 0 1.41 1.97 6.767 3.096 9.587-1.126.282-1.97 1.41-1.97 2.82s.844 2.819 1.97 2.819l-.844 5.357c-11.539.846-21.67 5.357-29.831 12.406l-4.503-3.101c.563-.846.563-2.538-.563-3.384-1.126-1.128-2.533-1.41-3.377-.564-1.126-2.82-3.377-7.894-4.503-9.022-1.407-1.128-4.221-.282-6.191 1.973-2.252 1.974-3.096 4.794-1.97 6.485.844 1.128 6.191 3.384 9.005 4.512-.563.846-.281 2.537.563 3.383 1.126 1.128 2.533 1.41 3.377.564l3.096 4.511A51.797 51.797 0 0023.92 71.617l-5.347.845c-.281-1.127-1.407-1.973-2.814-1.973s-2.533.846-2.814 1.973c-2.815-1.127-8.162-3.101-9.569-3.101C1.407 69.643 0 72.18 0 75.282c0 3.102 1.407 5.64 3.377 5.921 1.407 0 6.754-1.974 9.569-3.102.281 1.128 1.407 1.974 2.814 1.974s2.814-.846 2.814-1.974l5.347.846c.845 11.56 5.347 21.711 12.383 29.888l-2.814 4.229c-.845-.564-2.533-.564-3.377.564-1.126 1.128-1.408 2.537-.563 3.383-2.815 1.128-7.88 3.384-9.006 4.512-1.126 1.409-.281 4.229 1.689 6.485 2.251 2.255 5.065 3.101 6.472 1.691 1.126-.846 3.378-6.203 4.503-9.022.845.564 2.533.282 3.377-.564 1.126-1.128 1.407-2.538.563-3.384l4.503-3.101a51.599 51.599 0 0029.831 12.406l.844 5.357c-1.125.282-1.97 1.41-1.97 2.82 0 1.409.845 2.537 1.97 2.819-1.125 2.82-3.095 8.177-3.095 9.587.281 1.973 2.814 3.383 5.91 3.383 3.095 0 5.628-1.41 5.91-3.383 0-1.41-1.97-6.767-3.096-9.587 1.126-.282 1.97-1.41 1.97-2.819 0-1.41-.844-2.82-1.97-2.82l.844-5.357c11.539-.846 21.67-5.357 29.831-12.406l4.503 3.101c-.563.846-.563 2.538.563 3.384 1.126 1.128 2.533 1.41 3.377.564 1.126 2.819 3.377 8.176 4.503 9.022 1.407 1.128 4.221.282 6.473-1.691 2.251-2.256 3.095-5.076 1.688-6.485-.844-1.128-6.191-3.384-9.005-4.512.563-.846.281-2.537-.563-3.383-1.126-1.128-2.533-1.41-3.377-.564l-3.096-4.511a51.795 51.795 0 0012.383-29.888l5.347-.845c.281 1.127 1.407 1.973 2.814 1.973s2.533-.846 2.814-1.973c2.815 1.127 8.162 3.101 9.569 3.101C148.593 80.64 150 78.101 150 75c-.563-2.82-1.97-5.64-3.659-5.921zM30.957 76.974c-1.126 0-1.97-.846-1.97-1.974 0-1.128.844-1.974 1.97-1.974s1.97.846 1.97 1.974c0 1.128-.844 1.974-1.97 1.974zm73.452-34.399c.844-.846 1.97-.846 2.814 0 .845.846.845 1.974 0 2.82-.844.846-1.97.846-2.814 0a2.564 2.564 0 010-2.82zm-29.55-13.252c1.126 0 1.97.846 1.97 1.974 0 1.128-.844 1.974-1.97 1.974-1.125 0-1.97-.846-1.97-1.974 0-1.128.845-1.974 1.97-1.974zM42.495 42.575c.845-.846 1.97-.846 2.815 0 .844.846.844 1.974 0 2.82-.845.846-1.97.846-2.815 0a2.565 2.565 0 010-2.82zm5.066 8.177l2.251 2.255c.563.564 1.126.564 1.689.282l3.096 3.102c-.845 1.974 0 5.075 2.532 7.613 2.815 2.82 6.755 3.665 8.443 1.973-2.251 2.256-3.658 5.358-3.658 8.741v-.846H50.938c-.281 0-.563-.282-.563-.846 0-.564.282-.846.563-.846h11.539v-.282c0-.845-.845-1.691-1.689-1.691H49.812c-.563 0-1.97 1.692-2.814 3.101h-3.377c-.281-.564-.844-1.128-1.407-1.128h-3.659c.563-7.894 3.659-15.507 9.006-21.428zm-2.251 56.673c-.845.846-1.97.846-2.815 0-.844-.846-.844-1.974 0-2.82.845-.846 1.97-.846 2.815 0 .844.846.844 1.974 0 2.82zm2.251-8.177c-5.347-5.92-8.724-13.816-9.287-22.274h3.658c.563 0 1.408-.564 1.408-1.128h3.095c.845 1.41 2.252 3.383 2.814 3.383h10.976c.844 0 1.689-.564 1.689-1.41v-.563H50.938c-.281 0-.563-.282-.563-.846 0-.564.282-.846.563-.846h11.539v-.846c0 3.383 1.407 6.485 3.658 8.74-1.689-1.691-5.628-.845-8.443 1.974-2.532 2.538-3.377 5.64-2.532 7.613l-3.096 3.102c-.563-.282-1.407-.282-1.689.282l-2.814 2.82zm27.298 21.711c-1.125 0-1.97-.846-1.97-1.974 0-1.128.845-1.974 1.97-1.974 1.126 0 1.97.846 1.97 1.974 0 1.128-.844 1.974-1.97 1.974zm32.364-13.534c-.844.846-1.97.846-2.814 0-.844-.846-.844-1.974 0-2.82.844-.846 1.97-.846 2.814 0 .845.846.845 1.974 0 2.82zm-5.065-8.177l-2.252-2.255c-.563-.564-1.126-.564-1.688-.282l-3.096-3.102c.844-1.974 0-5.075-2.533-7.613-2.814-2.82-6.754-3.665-8.443-1.973-1.688 1.691-.844 5.639 1.97 8.458 2.533 2.538 5.629 3.384 7.599 2.538l3.096 3.101c-.282.564-.282 1.41.28 1.692l2.252 2.256c-5.91 5.357-13.508 8.74-21.95 9.304v-3.665c0-.564-.564-1.41-1.127-1.41v-3.383c1.126-.846 3.096-2.256 3.096-2.82V89.098c0-.846-.844-1.692-1.688-1.692h-.282v11.56c0 .282-.281.564-.844.564s-.844-.282-.844-.564V87.688h-1.689v11.278c0 .282-.281.564-.844.564s-.845-.282-.845-.564V87.688h-.562c-.845 0-1.407.846-1.407 1.692v10.996c0 .564 1.97 1.974 3.377 2.819v3.102c-.563.282-1.126.846-1.126 1.41v3.665c-8.443-.564-16.323-3.947-22.233-9.304l2.252-2.256c.563-.564.563-1.128.281-1.692l3.096-3.101c1.97.846 5.065 0 7.598-2.538 2.815-2.82 3.659-6.767 1.97-8.458 2.252 2.255 5.347 3.665 8.724 3.665 7.036 0 12.383-5.64 12.383-12.406 0-7.049-5.628-12.406-12.383-12.406-3.377 0-6.472 1.41-8.724 3.665 1.689-1.691.844-5.639-1.97-8.458-2.533-2.538-5.628-3.384-7.598-2.538l-3.096-3.101c.282-.564.282-1.41-.281-1.692l-2.252-2.256c5.91-5.357 13.79-8.74 22.233-9.304v3.665c0 .564.563 1.41 1.126 1.41v3.101c-1.407.846-3.377 2.256-3.377 2.82v10.996c0 .846.562 1.692 1.407 1.692h.563V51.034c0-.282.28-.564.844-.564.563 0 .844.282.844.564v11.56h1.689v-11.56c0-.282.281-.564.844-.564s.844.282.844.564v11.56h.282c.844 0 1.688-.846 1.688-1.692V49.906c0-.564-1.688-1.974-3.096-2.82v-3.383c.563-.282 1.126-.846 1.126-1.41v-3.665c8.443.564 16.041 3.947 21.951 9.022l-2.251 2.256c-.563.564-.563 1.128-.281 1.692l-3.096 3.101c-1.97-.846-5.066 0-7.599 2.538-2.814 2.82-3.658 6.767-1.97 8.458 1.689 1.692 5.629.846 8.443-1.973 2.533-2.538 3.377-5.64 2.533-7.613l3.096-3.102c.563.282 1.407.282 1.688-.281l2.252-2.256c5.347 5.921 8.724 13.534 9.287 21.992h-3.659c-.563 0-1.407.564-1.407 1.128h-3.377c-.844-1.128-2.252-3.101-2.814-3.101H89.212c-.844 0-1.689.846-1.689 1.691v.282h11.258c.28 0 .562.282.562.846 0 .564-.281.846-.563.846H87.523v1.41h11.258c.28 0 .562.282.562.846 0 .564-.281.846-.563.846H87.523v.564c0 .845.845 1.41 1.689 1.41h10.976c.562 0 1.97-1.974 2.814-3.384h3.096c.281.564.844 1.128 1.407 1.128h3.658c-.281 8.74-3.658 16.353-9.005 22.274zM66.979 75c0-4.23 3.377-7.895 7.88-7.895 4.222 0 7.88 3.384 7.88 7.895 0 4.23-3.377 7.895-7.88 7.895-4.221 0-7.88-3.384-7.88-7.895zm51.783 1.974c-1.126 0-1.97-.846-1.97-1.974 0-1.128.844-1.974 1.97-1.974 1.125 0 1.97.846 1.97 1.974 0 1.128-.845 1.974-1.97 1.974z" fill="#FFD600"/></svg><svg viewBox="0 0 32 32" id="check" xmlns="http://www.w3.org/2000/svg"><g transform="scale(2)"><circle cx="8" cy="8" r="7" fill="#4caf50"/><path d="M11.535 4.4L7.293 8.6 4.465 5.8 3.05 7.2l2.828 2.9 1.414 1.4 5.656-5.7z" fill="#fff"/></g></svg><svg aria-hidden="true" data-prefix="fas" data-icon="chevron-down" class="csvg-inline--fa cfa-chevron-down cfa-w-14" viewBox="0 0 448 512" id="chevron-down-solid" xmlns="http://www.w3.org/2000/svg"><path fill="currentColor" d="M207.029 381.476L12.686 187.132c-9.373-9.373-9.373-24.569 0-33.941l22.667-22.667c9.357-9.357 24.522-9.375 33.901-.04L224 284.505l154.745-154.021c9.379-9.335 24.544-9.317 33.901.04l22.667 22.667c9.373 9.373 9.373 24.569 0 33.941L240.971 381.476c-9.373 9.372-24.569 9.372-33.942 0z"/></svg><svg aria-hidden="true" data-prefix="fas" data-icon="envelope" class="dsvg-inline--fa dfa-envelope dfa-w-16" viewBox="0 0 512 512" id="envelope-solid" xmlns="http://www.w3.org/2000/svg"><path fill="currentColor" d="M502.3 190.8c3.9-3.1 9.7-.2 9.7 4.7V400c0 26.5-21.5 48-48 48H48c-26.5 0-48-21.5-48-48V195.6c0-5 5.7-7.8 9.7-4.7 22.4 17.4 52.1 39.5 154.1 113.6 21.1 15.4 56.7 47.8 92.2 47.6 35.7.3 72-32.8 92.3-47.6 102-74.1 131.6-96.3 154-113.7zM256 320c23.2.4 56.6-29.2 73.4-41.4 132.7-96.3 142.8-104.7 173.4-128.7 5.8-4.5 9.2-11.5 9.2-18.9v-19c0-26.5-21.5-48-48-48H48C21.5 64 0 85.5 0 112v19c0 7.4 3.4 14.3 9.2 18.9 30.6 23.9 40.7 32.4 173.4 128.7 16.8 12.2 50.2 41.8 73.4 41.4z"/></svg><svg aria-hidden="true" data-prefix="fab" data-icon="facebook-f" class="esvg-inline--fa efa-facebook-f efa-w-10" viewBox="0 0 320 512" id="facebook-f-brands" xmlns="http://www.w3.org/2000/svg"><path fill="currentColor" d="M279.14 288l14.22-92.66h-88.91v-60.13c0-25.35 12.42-50.06 52.24-50.06h40.42V6.26S260.43 0 225.36 0c-73.22 0-121.08 44.38-121.08 124.72v70.62H22.89V288h81.39v224h100.17V288z"/></svg><svg aria-hidden="true" data-prefix="fab" data-icon="instagram" class="fsvg-inline--fa ffa-instagram ffa-w-14" viewBox="0 0 448 512" id="instagram-brands" xmlns="http://www.w3.org/2000/svg"><path fill="currentColor" d="M224.1 141c-63.6 0-114.9 51.3-114.9 114.9s51.3 114.9 114.9 114.9S339 319.5 339 255.9 287.7 141 224.1 141zm0 189.6c-41.1 0-74.7-33.5-74.7-74.7s33.5-74.7 74.7-74.7 74.7 33.5 74.7 74.7-33.6 74.7-74.7 74.7zm146.4-194.3c0 14.9-12 26.8-26.8 26.8-14.9 0-26.8-12-26.8-26.8s12-26.8 26.8-26.8 26.8 12 26.8 26.8zm76.1 27.2c-1.7-35.9-9.9-67.7-36.2-93.9-26.2-26.2-58-34.4-93.9-36.2-37-2.1-147.9-2.1-184.9 0-35.8 1.7-67.6 9.9-93.9 36.1s-34.4 58-36.2 93.9c-2.1 37-2.1 147.9 0 184.9 1.7 35.9 9.9 67.7 36.2 93.9s58 34.4 93.9 36.2c37 2.1 147.9 2.1 184.9 0 35.9-1.7 67.7-9.9 93.9-36.2 26.2-26.2 34.4-58 36.2-93.9 2.1-37 2.1-147.8 0-184.8zM398.8 388c-7.8 19.6-22.9 34.7-42.6 42.6-29.5 11.7-99.5 9-132.1 9s-102.7 2.6-132.1-9c-19.6-7.8-34.7-22.9-42.6-42.6-11.7-29.5-9-99.5-9-132.1s-2.6-102.7 9-132.1c7.8-19.6 22.9-34.7 42.6-42.6 29.5-11.7 99.5-9 132.1-9s102.7-2.6 132.1 9c19.6 7.8 34.7 22.9 42.6 42.6 11.7 29.5 9 99.5 9 132.1s2.7 102.7-9 132.1z"/></svg><svg aria-hidden="true" data-prefix="fas" data-icon="map-marker-alt" class="gsvg-inline--fa gfa-map-marker-alt gfa-w-12" viewBox="0 0 384 512" id="map-marker-alt-solid" xmlns="http://www.w3.org/2000/svg"><path fill="currentColor" d="M172.268 501.67C26.97 291.031 0 269.413 0 192 0 85.961 85.961 0 192 0s192 85.961 192 192c0 77.413-26.97 99.031-172.268 309.67-9.535 13.774-29.93 13.773-39.464 0zM192 272c44.183 0 80-35.817 80-80s-35.817-80-80-80-80 35.817-80 80 35.817 80 80 80z"/></svg><svg aria-hidden="true" data-prefix="fas" data-icon="phone" class="hsvg-inline--fa hfa-phone hfa-w-16" viewBox="0 0 512 512" id="phone-solid" xmlns="http://www.w3.org/2000/svg"><path fill="currentColor" d="M493.4 24.6l-104-24c-11.3-2.6-22.9 3.3-27.5 13.9l-48 112c-4.2 9.8-1.4 21.3 6.9 28l60.6 49.6c-36 76.7-98.9 140.5-177.2 177.2l-49.6-60.6c-6.8-8.3-18.2-11.1-28-6.9l-112 48C3.9 366.5-2 378.1.6 389.4l24 104C27.1 504.2 36.7 512 48 512c256.1 0 464-207.5 464-464 0-11.2-7.7-20.9-18.6-23.4z"/></svg><svg aria-hidden="true" data-prefix="fab" data-icon="twitter" class="isvg-inline--fa ifa-twitter ifa-w-16" viewBox="0 0 512 512" id="twitter-brands" xmlns="http://www.w3.org/2000/svg"><path fill="currentColor" d="M459.37 151.716c.325 4.548.325 9.097.325 13.645 0 138.72-105.583 298.558-298.558 298.558-59.452 0-114.68-17.219-161.137-47.106 8.447.974 16.568 1.299 25.34 1.299 49.055 0 94.213-16.568 130.274-44.832-46.132-.975-84.792-31.188-98.112-72.772 6.498.974 12.995 1.624 19.818 1.624 9.421 0 18.843-1.3 27.614-3.573-48.081-9.747-84.143-51.98-84.143-102.985v-1.299c13.969 7.797 30.214 12.67 47.431 13.319-28.264-18.843-46.781-51.005-46.781-87.391 0-19.492 5.197-37.36 14.294-52.954 51.655 63.675 129.3 105.258 216.365 109.807-1.624-7.797-2.599-15.918-2.599-24.04 0-57.828 46.782-104.934 104.934-104.934 30.213 0 57.502 12.67 76.67 33.137 23.715-4.548 46.456-13.32 66.599-25.34-7.798 24.366-24.366 44.833-46.132 57.827 21.117-2.273 41.584-8.122 60.426-16.243-14.292 20.791-32.161 39.308-52.628 54.253z"/></svg></svg>